<svg width="32" height="32" viewBox="0 0 32 32" fill="none" xmlns="http://www.w3.org/2000/svg">
  <!-- Background -->
  <rect width="32" height="32" rx="8" fill="#4F46E5"/>

  <!-- Modern Sneaker Silhouette inspired by Adobe Stock designs -->
  <path d="M7 20.5V18c0-1.5 0.8-2.8 2-3.5l1.5-0.8c1.2-0.6 2.5-1 3.8-1.2L18 12c1.8 0 3.5 0.4 5 1.2l2 1c1.2 0.6 2 1.9 2 3.3V20c0 0.6-0.4 1-1 1H8c-0.6 0-1-0.4-1-0.5z"
    fill="white"/>

  <!-- Air Holes/Details -->
  <path d="M11 16h2M15 16h2M19 16h2"
    stroke="#4F46E5"
    strokeWidth="1.5"
    strokeLinecap="round"/>

  <!-- Nike-style Swoosh -->
  <path d="M10 18c4-5 8-3 12 1"
    stroke="#4F46E5"
    strokeWidth="1.5"
    strokeLinecap="round"/>

  <!-- Bottom Sole -->
  <path d="M7 19.5c6-1 12-1 18 0"
    stroke="#4F46E5"
    strokeWidth="1.5"
    strokeLinecap="round"/>
</svg>